# xmcd
#
# Track frame offsets: 
#        150
#        17983
#        37314
#        52724
#        71324
#        90635
#        110392
#        122494
#        142672
#        155535
#        182975
#
# Disc length: 2662 seconds
#
# Revision: 0
# Processed by: cddbd v1.5.2PL0 Copyright (c) Steve Scherf et al.
# Submitted via: ExactAudioCopy v0.99pb3
#
DISCID=8a0a640b
DTITLE=Grayson Capps - The Lost Cause Minstrels
DYEAR=2011
DGENRE=Blues
TTITLE0=Highway 42
TTITLE1=Coconut Moonshine
TTITLE2=John The Dagger
TTITLE3=Jane's Alley Blues
TTITLE4=Chief Seattle
TTITLE5=Yes You Are
TTITLE6=Annie's Lover
TTITLE7=Ol' Slac
TTITLE8=Paris, France
TTITLE9=No Definitions
TTITLE10=Rock 'n' Roll
EXTD=
EXTT0=
EXTT1=
EXTT2=
EXTT3=
EXTT4=
EXTT5=
EXTT6=
EXTT7=
EXTT8=
EXTT9=
EXTT10=
PLAYORDER=
